<svg width="129" height="70" viewBox="0 0 129 70" fill="none" xmlns="http://www.w3.org/2000/svg"><path d="M63.4 62.77c0 1.342-.475 2.352-1.418 3.021-.819.57-1.933.85-3.339.85a6.44 6.44 0 01-2.632-.537c-.886-.38-1.581-.938-2.076-1.667l1.749-1.564c.795.926 1.83 1.391 3.099 1.391 1.406 0 2.113-.44 2.113-1.318 0-.51-.34-.91-1.023-1.199-.243-.104-.802-.252-1.677-.453-1.27-.288-2.18-.661-2.736-1.11-.703-.565-1.054-1.407-1.054-2.517 0-1.135.451-2.025 1.35-2.674.807-.59 1.801-.886 2.975-.886 1.73 0 3.203.638 4.413 1.912l-1.75 1.704c-.806-.834-1.724-1.25-2.75-1.25-1.155 0-1.73.364-1.73 1.093 0 .453.311.806.934 1.059.16.068.663.204 1.506.4 1.258.301 2.173.654 2.752 1.059.862.609 1.294 1.503 1.294 2.685zm8.566 3.683h-2.388v-.61c-.507.533-1.218.798-2.129.798-2.236 0-3.358-1.39-3.358-4.169v-5.138h2.388v4.934c0 .673.092 1.163.275 1.475.232.429.651.641 1.262.641 1.039 0 1.558-.689 1.558-2.068v-4.982h2.388v9.119h.004zm9.118-4.449c0 1.274-.268 2.328-.795 3.162-.623.986-1.534 1.475-2.736 1.475-.762 0-1.401-.236-1.92-.713v2.874L73.243 70V57.33h2.388v.573c.575-.509 1.218-.765 1.921-.765 1.246 0 2.173.52 2.784 1.563.5.861.747 1.96.747 3.303zm-2.42.052c0-1.772-.52-2.658-1.558-2.658-.587 0-1.078.257-1.47.766v3.439c.38.52.919.781 1.61.781.942 0 1.418-.773 1.418-2.328zm11.022-.156c0 .276-.012.532-.036.765h-5.435c.036.533.224.954.563 1.258.34.305.775.461 1.306.461.667 0 1.186-.212 1.557-.64l1.698 1.422c-.36.461-.835.826-1.426 1.086a4.502 4.502 0 01-1.825.39c-1.362 0-2.428-.458-3.203-1.372-.715-.858-1.074-1.98-1.074-3.37 0-1.3.347-2.39 1.038-3.283.75-.986 1.753-1.475 3.011-1.475 1.234 0 2.197.505 2.892 1.51.623.883.934 1.965.934 3.247zm-2.32-1.043c-.036-.485-.192-.878-.475-1.182-.284-.3-.667-.453-1.15-.453-.44 0-.783.16-1.039.477-.255.317-.403.705-.451 1.154h3.115v.004zm8.774-3.07l-.623 2.345c-.427-.393-.887-.59-1.386-.59-.587 0-1.002.185-1.246.558-.196.312-.295.79-.295 1.423v4.93H90.2v-9.12h2.389v.61a2.477 2.477 0 011.869-.797c.718-.004 1.278.212 1.681.64zm9.709 4.983c0 1.342-.476 2.352-1.418 3.021-.819.57-1.933.85-3.339.85-.946 0-1.821-.18-2.632-.537-.886-.38-1.581-.938-2.076-1.667l1.749-1.564c.795.926 1.829 1.391 3.099 1.391 1.406 0 2.113-.44 2.113-1.318 0-.51-.34-.91-1.023-1.199-.243-.104-.803-.252-1.677-.453-1.27-.288-2.18-.661-2.736-1.11-.703-.565-1.054-1.407-1.054-2.517 0-1.135.451-2.025 1.35-2.674.806-.59 1.797-.886 2.975-.886 1.729 0 3.203.638 4.413 1.912l-1.749 1.704c-.807-.834-1.725-1.25-2.752-1.25-1.154 0-1.73.364-1.73 1.093 0 .453.312.806.935 1.059.164.068.663.204 1.506.4 1.258.301 2.173.654 2.752 1.059.858.609 1.294 1.503 1.294 2.685zm6.194.885l-.348 2.433c-.471.369-1.09.557-1.853.557-.762 0-1.362-.272-1.801-.818-.415-.509-.623-1.15-.623-1.928v-4.308h-1.521v-2.257h1.521v-2.345l2.388-1.198v3.543h2.181v2.257h-2.181v3.663c0 .73.296 1.094.883 1.094.359 0 .811-.228 1.354-.693zm8.255-1.755c0 .276-.012.532-.036.765h-5.436c.036.533.224.954.564 1.258.339.305.774.461 1.305.461.671 0 1.187-.212 1.558-.64l1.697 1.422a3.62 3.62 0 01-1.425 1.086 4.506 4.506 0 01-1.826.39c-1.361 0-2.428-.458-3.202-1.372-.715-.858-1.075-1.98-1.075-3.37 0-1.3.348-2.39 1.039-3.283.75-.986 1.753-1.475 3.011-1.475 1.234 0 2.196.505 2.891 1.51.623.883.935 1.965.935 3.247zm-2.321-1.043c-.036-.485-.191-.878-.475-1.182-.283-.3-.667-.453-1.15-.453-.439 0-.783.16-1.038.477-.256.317-.404.705-.452 1.154h3.115v.004zM129 62.004c0 1.274-.268 2.328-.795 3.162-.623.986-1.533 1.475-2.735 1.475-.763 0-1.402-.236-1.921-.713v2.874L121.16 70V57.33h2.389v.573c.575-.509 1.218-.765 1.921-.765 1.246 0 2.172.52 2.787 1.563.495.861.743 1.96.743 3.303zm-2.424.052c0-1.772-.519-2.658-1.558-2.658-.587 0-1.078.257-1.469.766v3.439c.379.52.918.781 1.609.781.947 0 1.418-.773 1.418-2.328zM76.934 44.05v.401c0 .75-.115 1.431-.351 2.045a4.615 4.615 0 01-.986 1.583c-.428.44-.935.782-1.526 1.022s-1.246.36-1.965.36c-.719 0-1.374-.12-1.965-.36a4.373 4.373 0 01-1.526-1.022 4.556 4.556 0 01-.986-1.583 5.744 5.744 0 01-.351-2.045v-.4c0-.75.115-1.431.351-2.045a4.616 4.616 0 01.986-1.583 4.408 4.408 0 011.526-1.022 5.168 5.168 0 011.965-.36c.719 0 1.374.12 1.965.36.59.24 1.102.581 1.526 1.022.427.441.754.97.986 1.583.231.614.351 1.295.351 2.045zm-2.556.401v-.4c0-.802-.2-1.463-.599-1.985-.399-.52-.958-.781-1.677-.781-.719 0-1.278.26-1.677.782-.4.52-.6 1.182-.6 1.984v.4c0 .802.2 1.463.6 1.984.399.522.958.782 1.677.782.719 0 1.278-.26 1.677-.782.4-.52.6-1.182.6-1.984zm10.14 4.81v-.641c-.307.28-.667.497-1.078.65a3.894 3.894 0 01-1.358.232c-.65 0-1.234-.108-1.745-.329a3.553 3.553 0 01-1.286-.922 4.152 4.152 0 01-.799-1.39 5.285 5.285 0 01-.28-1.764V39.24h2.796v5.852c0 .509.176.93.531 1.262.352.333.803.501 1.35.501s.995-.168 1.346-.5c.352-.333.531-.754.531-1.263V39.24h2.796v10.02h-2.804zm8.227.181c-.371 0-.767-.032-1.178-.1a9.103 9.103 0 01-1.218-.29 5.483 5.483 0 01-1.126-.5 3.205 3.205 0 01-.867-.73l1.598-1.723c.507.44.994.733 1.465.882.472.148.915.22 1.33.22a1.877 1.877 0 00.907-.24c.14-.08.255-.185.351-.313a.75.75 0 00.14-.449c0-.32-.184-.553-.551-.701a9.293 9.293 0 00-1.306-.401 53.099 53.099 0 01-1.178-.309 5.21 5.21 0 01-1.15-.469 2.753 2.753 0 01-.879-.781c-.231-.321-.363-.734-.387-1.243a2.593 2.593 0 01.387-1.583 3.02 3.02 0 01.87-.89 4.33 4.33 0 011.259-.581c.479-.14.99-.213 1.537-.213.72 0 1.398.105 2.037.313a3.74 3.74 0 011.598.99l-1.358 1.603c-.228-.268-.551-.485-.967-.65a3.182 3.182 0 00-1.186-.248c-.387 0-.723.08-1.006.24-.288.161-.428.39-.428.682 0 .349.188.598.56.75a10.2 10.2 0 001.337.429c.388.092.787.196 1.21.308.42.113.807.269 1.167.461.36.193.659.45.898.762.24.313.372.71.4 1.19.028.133.028.273 0 .421-.028.453-.14.874-.34 1.263-.2.389-.48.721-.839 1.002-.359.28-.798.5-1.317.661a6.24 6.24 0 01-1.77.237zm9.861.02a5.494 5.494 0 01-1.965-.341 4.372 4.372 0 01-1.526-.974 4.246 4.246 0 01-.986-1.543c-.232-.61-.348-1.287-.348-2.032v-.521c0-.75.116-1.431.348-2.045a4.616 4.616 0 01.986-1.583 4.372 4.372 0 011.526-1.022 5.168 5.168 0 011.965-.36c.719 0 1.374.12 1.965.36s1.102.581 1.525 1.022c.428.441.755.97.987 1.583a5.76 5.76 0 01.351 2.045v.841h-7.089c.052.722.272 1.291.659 1.704.388.413.919.621 1.598.621.411 0 .818-.084 1.218-.248.399-.169.711-.385.938-.65l1.877 1.523a3.139 3.139 0 01-.758.682 5.45 5.45 0 01-.999.509c-.359.14-.735.248-1.126.32a6.664 6.664 0 01-1.146.109zm-2.157-6.333h4.313c-.131-.561-.379-1.006-.739-1.343-.359-.333-.83-.501-1.417-.501-.587 0-1.059.168-1.418.501-.359.333-.603.782-.739 1.343zm22.401.921v.401c0 .75-.116 1.431-.352 2.045a4.61 4.61 0 01-.986 1.583 4.41 4.41 0 01-1.526 1.022c-.591.24-1.246.36-1.965.36a5.18 5.18 0 01-1.965-.36 4.422 4.422 0 01-1.529-1.022 4.567 4.567 0 01-.987-1.583c-.231-.614-.347-1.295-.347-2.045v-.4c0-.75.116-1.431.347-2.045a4.628 4.628 0 01.987-1.583 4.383 4.383 0 011.529-1.022 5.171 5.171 0 011.965-.36c.719 0 1.374.12 1.965.36a4.37 4.37 0 011.526 1.022c.427.441.755.97.986 1.583.236.614.352 1.295.352 2.045zm-2.556.401v-.4c0-.802-.2-1.463-.599-1.985-.4-.52-.959-.781-1.678-.781-.718 0-1.278.26-1.677.782-.399.52-.599 1.182-.599 1.984v.4c0 .802.2 1.463.599 1.984.399.522.959.782 1.677.782.719 0 1.278-.26 1.678-.782.399-.52.599-1.182.599-1.984zm4.197 4.81l2.792-1.419v-6.477H129v-2.124h-1.717c0-.521.167-.91.499-1.17.331-.261.739-.393 1.218-.393v-2.445c-.731 0-1.382.096-1.945.292a3.888 3.888 0 00-1.418.822 3.388 3.388 0 00-.858 1.27 4.437 4.437 0 00-.288 1.624h-1.158v2.124h1.158v7.896zm-61.335-8.417H57.17V32.29l-2.796-2.805V49.26h2.796v-5.61h5.986v5.563l2.796-1.419V35.233h-2.796v5.611z" fill="#000"/><path fill-rule="evenodd" clip-rule="evenodd" d="M17.353 7.656v47.06c0 1.07.866 1.94 1.932 1.94 1.067 0 1.933-.87 1.933-1.94v-3.475a3.156 3.156 0 013.151-3.162 3.156 3.156 0 013.151 3.162 2.552 2.552 0 002.548 2.558 2.552 2.552 0 002.548-2.558V7.656L24.98 0l-7.627 7.656zM34.705 9.76v47.88c0 .745.603 1.346 1.342 1.346.743 0 1.342-.605 1.342-1.346v-2.582a3.263 3.263 0 013.259-3.27 3.263 3.263 0 013.259 3.27v9.371a3.03 3.03 0 003.027 3.039 3.03 3.03 0 003.027-3.038V25.072L34.705 9.76zM4.896 20.157l-1.761 1.768-.391.393-.372.373c-.24.24-.463.465-.67.677l-.152.152-.783.786-.767.766v27.1a2.99 2.99 0 002.983 2.994 2.99 2.99 0 002.984-2.995v-1.964c0-1.166.942-2.116 2.108-2.116a2.11 2.11 0 012.109 2.116v11.596a2.54 2.54 0 002.536 2.545 2.542 2.542 0 002.536-2.545V9.76L4.896 20.157z" fill="#000"/><path fill-rule="evenodd" clip-rule="evenodd" d="M39.554 31.076c0 8.225-6.526 14.89-14.573 14.89-8.051 0-14.573-6.665-14.573-14.89 0-8.225 6.526-14.89 14.573-14.89 8.051 0 14.573 6.669 14.573 14.89z" fill="#fff"/><path fill-rule="evenodd" clip-rule="evenodd" d="M37.848 31.075c0 7.107-5.739 12.863-12.816 12.863-7.08 0-12.815-5.76-12.815-12.863 0-7.102 5.739-12.862 12.815-12.862 7.077 0 12.816 5.76 12.816 12.862z" fill="#fff"/><path fill-rule="evenodd" clip-rule="evenodd" d="M31.38 41.056c.029-.197.02-.405.033-.638.023-.392.151-.745.307-1.03a2.333 2.333 0 011.502-1.17 2.503 2.503 0 012.092.429c.016.012.032.028.048.04.288-.393.551-.798.791-1.223-.411-.3-.91-.517-1.498-.597-.195-.028-.403-.02-.635-.036a2.452 2.452 0 01-1.026-.309 2.339 2.339 0 01-1.166-1.507 2.54 2.54 0 01.423-2.1 2.428 2.428 0 011.753-.93 2.374 2.374 0 011.925.745c.32.345.571.786.643 1.363.024.197.012.413.032.638.044.444.156.817.316 1.146.595-1.483.926-3.106.926-4.806 0-2.064-.487-4.012-1.346-5.74a3.29 3.29 0 00-1.845-.89c-.195-.028-.403-.02-.635-.036a2.453 2.453 0 01-1.026-.308 2.34 2.34 0 01-1.166-1.507 2.54 2.54 0 01.423-2.1l.024-.029a13.208 13.208 0 00-1.294-.781c-.263.396-.46.87-.539 1.43-.028.201-.02.422-.032.638a2.494 2.494 0 01-.307 1.03 2.35 2.35 0 01-1.518 1.154 2.456 2.456 0 01-2.085-.436c-.499-.393-.858-.958-.918-1.748a2.36 2.36 0 01.735-1.924 2.39 2.39 0 011.35-.653c.195-.028.407-.016.634-.032.344-.029.651-.109.93-.217a12.702 12.702 0 00-4.2-.71c-2.197 0-4.266.558-6.075 1.536a3.38 3.38 0 00-.499 1.37c-.028.201-.02.422-.036.638a2.492 2.492 0 01-.308 1.03 2.35 2.35 0 01-1.517 1.154 2.458 2.458 0 01-1.977-.36c-.271.377-.52.77-.75 1.174.419.313.934.541 1.553.63.2.027.415.02.635.032a2.47 2.47 0 011.026.308c.56.313.975.826 1.15 1.523a2.492 2.492 0 01-.431 2.093c-.391.5-.954.861-1.741.921a2.342 2.342 0 01-1.917-.737 2.431 2.431 0 01-.651-1.355c-.028-.196-.016-.409-.036-.637a3.354 3.354 0 00-.336-1.207 12.851 12.851 0 00-.906 4.75c0 2.137.523 4.153 1.442 5.924a3.339 3.339 0 001.769.806c.2.028.415.02.635.032a2.47 2.47 0 011.026.309c.56.312.975.825 1.15 1.523a2.469 2.469 0 01-.403 2.048c.347.24.71.46 1.082.665.236-.376.412-.817.48-1.33.027-.197.02-.405.031-.638.024-.392.152-.745.308-1.03a2.333 2.333 0 011.502-1.17 2.503 2.503 0 012.092.429 2.418 2.418 0 01.922 1.756 2.387 2.387 0 01-.742 1.931 2.37 2.37 0 01-1.358.646c-.196.024-.411.012-.635.032-.3.028-.567.092-.81.176a12.776 12.776 0 0010.064-.61c.307-.412.53-.921.61-1.518zM20.199 20.497a2.397 2.397 0 011.75-.93 2.375 2.375 0 011.924.746c.32.34.572.786.643 1.363.024.196.012.413.032.637.08.814.38 1.387.791 1.884a3.326 3.326 0 002.14 1.186c.2.029.42.02.636.033a2.47 2.47 0 011.026.308c.56.313.974.826 1.15 1.523a2.48 2.48 0 01-.435 2.093c-.391.5-.954.861-1.741.921a2.343 2.343 0 01-1.917-.737 2.405 2.405 0 01-.651-1.355c-.028-.196-.016-.409-.032-.637a3.347 3.347 0 00-.783-1.892 3.293 3.293 0 00-2.133-1.195c-.195-.028-.403-.02-.635-.036a2.454 2.454 0 01-1.026-.308 2.327 2.327 0 01-1.166-1.507c-.208-.798.056-1.624.427-2.097zm-1.737 13.04c-.028.2-.02.42-.032.636a2.491 2.491 0 01-.307 1.03 2.35 2.35 0 01-1.518 1.155 2.457 2.457 0 01-2.085-.437c-.499-.393-.858-.958-.918-1.748a2.36 2.36 0 01.734-1.924 2.416 2.416 0 011.35-.653c.196-.028.408-.016.635-.032a3.318 3.318 0 001.885-.785 3.332 3.332 0 001.195-2.145c.027-.196.02-.405.031-.637.024-.393.152-.746.308-1.03a2.334 2.334 0 011.502-1.17 2.503 2.503 0 012.092.428 2.42 2.42 0 01.922 1.756 2.387 2.387 0 01-.742 1.932c-.34.32-.783.573-1.358.645-.196.024-.411.012-.635.032-.81.08-1.382.38-1.877.794a3.372 3.372 0 00-1.182 2.152zm11.402 8.228a2.353 2.353 0 01-1.741.922 2.343 2.343 0 01-1.917-.737 2.405 2.405 0 01-.651-1.355c-.028-.197-.016-.41-.032-.638a3.346 3.346 0 00-.783-1.892 3.314 3.314 0 00-2.133-1.198c-.195-.028-.403-.02-.635-.036a2.452 2.452 0 01-1.026-.309 2.326 2.326 0 01-1.166-1.507 2.526 2.526 0 01.427-2.1 2.397 2.397 0 011.75-.93 2.374 2.374 0 011.924.746c.32.344.572.785.643 1.362.024.197.012.413.032.638.08.813.38 1.386.791 1.883a3.326 3.326 0 002.14 1.187c.2.028.42.02.636.032.391.028.738.148 1.026.309.56.312.974.825 1.15 1.523a2.518 2.518 0 01-.435 2.1zm.244-6.561a2.35 2.35 0 01-1.518 1.154 2.457 2.457 0 01-2.085-.437c-.499-.393-.858-.958-.918-1.748a2.36 2.36 0 01.735-1.924 2.416 2.416 0 011.35-.653c.195-.028.407-.016.634-.032a3.318 3.318 0 001.885-.785 3.331 3.331 0 001.194-2.145c.029-.196.02-.405.032-.637.024-.393.152-.746.308-1.03a2.333 2.333 0 011.502-1.17 2.503 2.503 0 012.092.428 2.417 2.417 0 01.926 1.756 2.387 2.387 0 01-.742 1.932c-.34.32-.783.573-1.358.645-.195.024-.411.012-.635.032-.81.08-1.382.38-1.877.794a3.366 3.366 0 00-1.186 2.148c-.028.2-.02.421-.032.638a2.511 2.511 0 01-.308 1.034z" fill="#CE1D2D"/></svg>