<?xml version="1.0" encoding="utf-8"?>
<!-- Generator: Adobe Illustrator 28.1.0, SVG Export Plug-In . SVG Version: 6.00 Build 0)  -->
<svg version="1.1" id="Layer_1" xmlns="http://www.w3.org/2000/svg" xmlns:xlink="http://www.w3.org/1999/xlink" x="0px" y="0px"
	 viewBox="0 0 126 63" style="enable-background:new 0 0 126 63;" xml:space="preserve">
<style type="text/css">
	.st0{clip-path:url(#SVGID_00000150074009573390242500000015968116262831213237_);}
	
		.st1{clip-path:url(#SVGID_00000034768833077289607410000016830566932143012263_);fill-rule:evenodd;clip-rule:evenodd;fill:#1D1D1B;}
	
		.st2{clip-path:url(#SVGID_00000034768833077289607410000016830566932143012263_);fill-rule:evenodd;clip-rule:evenodd;fill:#FFFFFF;}
	
		.st3{clip-path:url(#SVGID_00000034768833077289607410000016830566932143012263_);fill-rule:evenodd;clip-rule:evenodd;fill:#CE0E2D;}
	.st4{clip-path:url(#SVGID_00000034768833077289607410000016830566932143012263_);fill:#1D1D1B;}
</style>
<g>
	<g>
		<defs>
			<rect id="SVGID_1_" x="-11" y="-21" width="148.1" height="104.2"/>
		</defs>
		<clipPath id="SVGID_00000098199664932529199860000015927411410984413837_">
			<use xlink:href="#SVGID_1_"  style="overflow:visible;"/>
		</clipPath>
		<g style="clip-path:url(#SVGID_00000098199664932529199860000015927411410984413837_);">
			<defs>
				<rect id="SVGID_00000012457004833514027620000000971874631083340971_" x="-11" y="-21" width="148.1" height="104.2"/>
			</defs>
			<clipPath id="SVGID_00000085956926253693909510000011164305773752727947_">
				<use xlink:href="#SVGID_00000012457004833514027620000000971874631083340971_"  style="overflow:visible;"/>
			</clipPath>
			
				<path style="clip-path:url(#SVGID_00000085956926253693909510000011164305773752727947_);fill-rule:evenodd;clip-rule:evenodd;fill:#1D1D1B;" d="
				M57.7,5.3v23.4V38c0,0.7,0.6,1.3,1.3,1.3c0.7,0,1.3-0.6,1.3-1.3v-2.4c0-1.2,1-2.2,2.2-2.2c1.2,0,2.2,1,2.2,2.2
				c0,1,0.8,1.8,1.8,1.8c1,0,1.8-0.8,1.8-1.8v-6.9V5.3L63,0L57.7,5.3z"/>
			
				<path style="clip-path:url(#SVGID_00000085956926253693909510000011164305773752727947_);fill-rule:evenodd;clip-rule:evenodd;fill:#1D1D1B;" d="
				M69.8,6.8v21.9V40c0,0.5,0.4,0.9,0.9,0.9c0.5,0,0.9-0.4,0.9-0.9v-1.8c0-1.3,1-2.3,2.3-2.3c1.3,0,2.3,1,2.3,2.3v6.5
				c0,1.2,0.9,2.1,2.1,2.1c1.2,0,2.1-0.9,2.1-2.1v-16v-9.5v-1.8L69.8,6.8z"/>
			
				<path style="clip-path:url(#SVGID_00000085956926253693909510000011164305773752727947_);fill-rule:evenodd;clip-rule:evenodd;fill:#1D1D1B;" d="
				M49,14l-0.2,0.2l-0.6,0.6l-0.4,0.4c-0.1,0.1-0.2,0.2-0.3,0.3l-0.3,0.3c-0.2,0.2-0.3,0.3-0.5,0.5l-0.1,0.1
				c-0.2,0.2-0.4,0.4-0.5,0.5l-0.5,0.5v11.3v7.5c0,1.1,0.9,2.1,2.1,2.1c1.1,0,2.1-0.9,2.1-2.1v-1.4c0-0.8,0.7-1.5,1.5-1.5
				s1.5,0.7,1.5,1.5v8c0,1,0.8,1.8,1.8,1.8c1,0,1.8-0.8,1.8-1.8V28.7V8.4V6.8C53.8,9.2,51.1,11.9,49,14"/>
			
				<path style="clip-path:url(#SVGID_00000085956926253693909510000011164305773752727947_);fill-rule:evenodd;clip-rule:evenodd;fill:#FFFFFF;" d="
				M73.2,21.6c0,5.7-4.5,10.3-10.1,10.3s-10.1-4.6-10.1-10.3c0-5.7,4.5-10.3,10.1-10.3S73.2,15.8,73.2,21.6"/>
			
				<path style="clip-path:url(#SVGID_00000085956926253693909510000011164305773752727947_);fill-rule:evenodd;clip-rule:evenodd;fill:#FFFFFF;" d="
				M72,21.6c0,4.9-4,8.9-8.9,8.9c-4.9,0-8.9-4-8.9-8.9c0-4.9,4-8.9,8.9-8.9C68,12.6,72,16.6,72,21.6"/>
			
				<path style="clip-path:url(#SVGID_00000085956926253693909510000011164305773752727947_);fill-rule:evenodd;clip-rule:evenodd;fill:#CE0E2D;" d="
				M67.5,28.5c0-0.1,0-0.3,0-0.4c0-0.3,0.1-0.5,0.2-0.7c0.2-0.4,0.6-0.7,1-0.8c0.6-0.1,1.1,0,1.5,0.3c0,0,0,0,0,0
				c0.2-0.3,0.4-0.6,0.6-0.8c-0.3-0.2-0.6-0.4-1-0.4c-0.1,0-0.3,0-0.4,0c-0.3,0-0.5-0.1-0.7-0.2c-0.4-0.2-0.7-0.6-0.8-1
				c-0.1-0.6,0-1.1,0.3-1.5c0.1-0.2,0.3-0.3,0.5-0.4c0.2-0.1,0.4-0.2,0.7-0.2c0.6,0,1.1,0.2,1.3,0.5c0.2,0.2,0.4,0.5,0.4,0.9
				c0,0.1,0,0.3,0,0.4c0,0.3,0.1,0.6,0.2,0.8c0.4-1,0.6-2.2,0.6-3.3c0-1.4-0.3-2.8-0.9-4c-0.3-0.3-0.8-0.5-1.3-0.6
				c-0.1,0-0.3,0-0.4,0c-0.3,0-0.5-0.1-0.7-0.2c-0.4-0.2-0.7-0.6-0.8-1c-0.1-0.6,0-1.1,0.3-1.5c0,0,0,0,0,0
				c-0.3-0.2-0.6-0.4-0.9-0.5c-0.2,0.3-0.3,0.6-0.4,1c0,0.1,0,0.3,0,0.4c0,0.3-0.1,0.5-0.2,0.7c-0.2,0.4-0.6,0.7-1.1,0.8
				c-0.6,0.1-1.1,0-1.5-0.3c-0.3-0.3-0.6-0.7-0.6-1.2c0-0.6,0.2-1.1,0.5-1.3c0.2-0.2,0.5-0.4,0.9-0.5c0.1,0,0.3,0,0.4,0
				c0.2,0,0.5-0.1,0.6-0.2c-0.9-0.3-1.9-0.5-2.9-0.5c-1.5,0-3,0.4-4.2,1.1c-0.2,0.3-0.3,0.6-0.3,1c0,0.1,0,0.3,0,0.4
				c0,0.3-0.1,0.5-0.2,0.7c-0.2,0.4-0.6,0.7-1.1,0.8c-0.5,0.1-1,0-1.4-0.2c-0.2,0.3-0.4,0.5-0.5,0.8c0.3,0.2,0.6,0.4,1.1,0.4
				c0.1,0,0.3,0,0.4,0c0.3,0,0.5,0.1,0.7,0.2c0.4,0.2,0.7,0.6,0.8,1.1c0.1,0.6,0,1.1-0.3,1.5c-0.3,0.3-0.7,0.6-1.2,0.6
				c-0.6,0-1.1-0.2-1.3-0.5c-0.2-0.2-0.4-0.5-0.5-0.9c0-0.1,0-0.3,0-0.4c0-0.3-0.1-0.6-0.2-0.8c-0.4,1-0.6,2.1-0.6,3.3
				c0,1.5,0.4,2.9,1,4.1c0.3,0.3,0.7,0.5,1.2,0.6c0.1,0,0.3,0,0.4,0c0.3,0,0.5,0.1,0.7,0.2c0.4,0.2,0.7,0.6,0.8,1.1
				c0.1,0.6,0,1.1-0.3,1.4c0.2,0.2,0.5,0.3,0.8,0.5c0.2-0.3,0.3-0.6,0.3-0.9c0-0.1,0-0.3,0-0.4c0-0.3,0.1-0.5,0.2-0.7
				c0.2-0.4,0.6-0.7,1-0.8c0.6-0.1,1.1,0,1.5,0.3c0.2,0.1,0.3,0.3,0.4,0.5c0.1,0.2,0.2,0.4,0.2,0.7c0,0.6-0.2,1.1-0.5,1.3
				c-0.2,0.2-0.5,0.4-0.9,0.4c-0.1,0-0.3,0-0.4,0c-0.2,0-0.4,0.1-0.6,0.1c0.9,0.3,2,0.5,3,0.5c1.4,0,2.8-0.3,4-0.9
				C67.3,29.2,67.4,28.9,67.5,28.5 M59.7,14.2c0.1-0.2,0.3-0.3,0.5-0.4c0.2-0.1,0.4-0.2,0.7-0.2c0.6,0,1.1,0.2,1.3,0.5
				c0.2,0.2,0.4,0.5,0.4,0.9c0,0.1,0,0.3,0,0.4c0.1,0.6,0.3,1,0.6,1.3c0.3,0.4,0.8,0.7,1.5,0.8c0.1,0,0.3,0,0.4,0
				c0.3,0,0.5,0.1,0.7,0.2c0.4,0.2,0.7,0.6,0.8,1.1c0.1,0.6,0,1.1-0.3,1.5c-0.3,0.3-0.7,0.6-1.2,0.6c-0.6,0-1.1-0.2-1.3-0.5
				c-0.2-0.2-0.4-0.5-0.5-0.9c0-0.1,0-0.3,0-0.4c0-0.6-0.3-1-0.5-1.3C62.5,17.4,62,17,61.4,17c-0.1,0-0.3,0-0.4,0
				c-0.3,0-0.5-0.1-0.7-0.2c-0.4-0.2-0.7-0.6-0.8-1C59.3,15.1,59.4,14.5,59.7,14.2 M58.5,23.3c0,0.1,0,0.3,0,0.4
				c0,0.3-0.1,0.5-0.2,0.7c-0.2,0.4-0.6,0.7-1.1,0.8c-0.6,0.1-1.1,0-1.5-0.3c-0.3-0.3-0.6-0.7-0.6-1.2c0-0.6,0.2-1.1,0.5-1.3
				c0.2-0.2,0.5-0.4,0.9-0.5c0.1,0,0.3,0,0.4,0c0.6,0,1-0.3,1.3-0.5c0.4-0.3,0.7-0.8,0.8-1.5c0-0.1,0-0.3,0-0.4
				c0-0.3,0.1-0.5,0.2-0.7c0.2-0.4,0.6-0.7,1-0.8c0.6-0.1,1.1,0,1.5,0.3c0.2,0.1,0.3,0.3,0.4,0.5c0.1,0.2,0.2,0.4,0.2,0.7
				c0,0.6-0.2,1.1-0.5,1.3c-0.2,0.2-0.5,0.4-0.9,0.4c-0.1,0-0.3,0-0.4,0c-0.6,0.1-1,0.3-1.3,0.6C58.9,22.1,58.6,22.6,58.5,23.3
				 M66.4,29c-0.3,0.3-0.7,0.6-1.2,0.6c-0.6,0-1.1-0.2-1.3-0.5c-0.2-0.2-0.4-0.5-0.5-0.9c0-0.1,0-0.3,0-0.4c0-0.6-0.3-1-0.5-1.3
				c-0.3-0.4-0.8-0.7-1.5-0.8c-0.1,0-0.3,0-0.4,0c-0.3,0-0.5-0.1-0.7-0.2c-0.4-0.2-0.7-0.6-0.8-1c-0.1-0.6,0-1.1,0.3-1.5
				c0.1-0.2,0.3-0.3,0.5-0.4c0.2-0.1,0.4-0.2,0.7-0.2c0.6,0,1.1,0.2,1.3,0.5c0.2,0.2,0.4,0.5,0.4,0.9c0,0.1,0,0.3,0,0.4
				c0.1,0.6,0.3,1,0.6,1.3c0.3,0.4,0.8,0.7,1.5,0.8c0.1,0,0.3,0,0.4,0c0.3,0,0.5,0.1,0.7,0.2c0.4,0.2,0.7,0.6,0.8,1.1
				C66.9,28.1,66.7,28.6,66.4,29 M66.6,24.4c-0.2,0.4-0.6,0.7-1.1,0.8c-0.6,0.1-1.1,0-1.5-0.3c-0.3-0.3-0.6-0.7-0.6-1.2
				c0-0.6,0.2-1.1,0.5-1.3c0.2-0.2,0.5-0.4,0.9-0.5c0.1,0,0.3,0,0.4,0c0.6,0,1-0.3,1.3-0.5c0.4-0.3,0.7-0.8,0.8-1.5
				c0-0.1,0-0.3,0-0.4c0-0.3,0.1-0.5,0.2-0.7c0.2-0.4,0.6-0.7,1-0.8c0.6-0.1,1.1,0,1.5,0.3c0.2,0.1,0.3,0.3,0.4,0.5
				c0.1,0.2,0.2,0.4,0.2,0.7c0,0.6-0.2,1.1-0.5,1.3c-0.2,0.2-0.5,0.4-0.9,0.4c-0.1,0-0.3,0-0.4,0c-0.6,0.1-1,0.3-1.3,0.6
				c-0.4,0.3-0.7,0.8-0.8,1.5c0,0.1,0,0.3,0,0.4C66.8,24,66.7,24.2,66.6,24.4"/>
			<path style="clip-path:url(#SVGID_00000085956926253693909510000011164305773752727947_);fill:#1D1D1B;" d="M18,55.1v0.3
				c0,0.6-0.1,1.1-0.3,1.6c-0.2,0.5-0.4,0.9-0.8,1.2c-0.3,0.3-0.7,0.6-1.2,0.8c-0.5,0.2-1,0.3-1.5,0.3c-0.5,0-1.1-0.1-1.5-0.3
				c-0.5-0.2-0.8-0.4-1.2-0.8c-0.3-0.3-0.6-0.7-0.8-1.2c-0.2-0.5-0.3-1-0.3-1.6v-0.3c0-0.6,0.1-1.1,0.3-1.6c0.2-0.5,0.4-0.9,0.8-1.2
				c0.3-0.3,0.7-0.6,1.2-0.8c0.5-0.2,1-0.3,1.5-0.3c0.5,0,1,0.1,1.5,0.3c0.5,0.2,0.8,0.4,1.2,0.8c0.3,0.3,0.6,0.7,0.8,1.2
				C17.9,54,18,54.5,18,55.1 M16,55.4v-0.3c0-0.6-0.2-1.1-0.5-1.5c-0.3-0.4-0.7-0.6-1.3-0.6c-0.5,0-1,0.2-1.3,0.6
				c-0.3,0.4-0.5,0.9-0.5,1.5v0.3c0,0.6,0.2,1.1,0.5,1.5c0.3,0.4,0.7,0.6,1.3,0.6c0.5,0,1-0.2,1.3-0.6C15.8,56.5,16,56,16,55.4"/>
			<path style="clip-path:url(#SVGID_00000085956926253693909510000011164305773752727947_);fill:#1D1D1B;" d="M25.9,59.1h-2.1v-0.5
				c-0.2,0.2-0.5,0.4-0.8,0.5c-0.3,0.1-0.7,0.2-1,0.2c-0.5,0-0.9-0.1-1.3-0.3c-0.4-0.2-0.7-0.4-1-0.7c-0.3-0.3-0.5-0.7-0.6-1.1
				c-0.1-0.4-0.2-0.9-0.2-1.3v-4.5h2.1v4.5c0,0.4,0.1,0.7,0.4,1c0.3,0.3,0.6,0.4,1,0.4c0.4,0,0.8-0.1,1-0.4c0.3-0.3,0.4-0.6,0.4-1
				v-4.5h2.1V59.1z"/>
			<path style="clip-path:url(#SVGID_00000085956926253693909510000011164305773752727947_);fill:#1D1D1B;" d="M30,59.2
				c-0.3,0-0.6,0-0.9-0.1c-0.3-0.1-0.6-0.1-0.9-0.2c-0.3-0.1-0.6-0.2-0.9-0.4c-0.3-0.2-0.5-0.3-0.7-0.6l1.2-1.3
				c0.4,0.3,0.8,0.6,1.1,0.7c0.4,0.1,0.7,0.2,1,0.2c0.1,0,0.2,0,0.4,0c0.1,0,0.2-0.1,0.3-0.1c0.1-0.1,0.2-0.1,0.3-0.2
				c0.1-0.1,0.1-0.2,0.1-0.3c0-0.2-0.1-0.4-0.4-0.5c-0.3-0.1-0.6-0.2-1-0.3c-0.3-0.1-0.6-0.2-0.9-0.2c-0.3-0.1-0.6-0.2-0.9-0.4
				c-0.3-0.2-0.5-0.4-0.7-0.6c-0.2-0.2-0.3-0.6-0.3-0.9c0-0.1,0-0.2,0-0.3c0-0.3,0.1-0.6,0.3-0.9c0.2-0.3,0.4-0.5,0.7-0.7
				c0.3-0.2,0.6-0.3,1-0.4c0.4-0.1,0.8-0.2,1.2-0.2c0.5,0,1.1,0.1,1.6,0.2c0.5,0.2,0.9,0.4,1.2,0.8l-1,1.2c-0.2-0.2-0.4-0.4-0.7-0.5
				c-0.3-0.1-0.6-0.2-0.9-0.2c-0.3,0-0.6,0.1-0.8,0.2c-0.2,0.1-0.3,0.3-0.3,0.5c0,0.3,0.1,0.5,0.4,0.6c0.3,0.1,0.6,0.2,1,0.3
				c0.3,0.1,0.6,0.2,0.9,0.2c0.3,0.1,0.6,0.2,0.9,0.4c0.3,0.1,0.5,0.3,0.7,0.6c0.2,0.2,0.3,0.5,0.3,0.9c0,0.1,0,0.2,0,0.3
				c0,0.3-0.1,0.7-0.3,1c-0.2,0.3-0.4,0.5-0.6,0.8c-0.3,0.2-0.6,0.4-1,0.5C31,59.1,30.5,59.2,30,59.2"/>
			<path style="clip-path:url(#SVGID_00000085956926253693909510000011164305773752727947_);fill:#1D1D1B;" d="M37.6,59.2
				c-0.5,0-1-0.1-1.5-0.3c-0.5-0.2-0.8-0.4-1.2-0.7c-0.3-0.3-0.6-0.7-0.8-1.2c-0.2-0.5-0.3-1-0.3-1.5v-0.4c0-0.6,0.1-1.1,0.3-1.6
				c0.2-0.5,0.4-0.9,0.8-1.2c0.3-0.3,0.7-0.6,1.2-0.8c0.5-0.2,1-0.3,1.5-0.3c0.5,0,1,0.1,1.5,0.3c0.5,0.2,0.8,0.4,1.2,0.8
				c0.3,0.3,0.6,0.7,0.8,1.2c0.2,0.5,0.3,1,0.3,1.6v0.6h-5.4c0,0.5,0.2,1,0.5,1.3c0.3,0.3,0.7,0.5,1.2,0.5c0.3,0,0.6-0.1,0.9-0.2
				c0.3-0.1,0.5-0.3,0.7-0.5l1.4,1.2c-0.2,0.2-0.3,0.4-0.6,0.5c-0.2,0.2-0.5,0.3-0.8,0.4c-0.3,0.1-0.6,0.2-0.9,0.2
				C38.1,59.2,37.8,59.2,37.6,59.2 M35.9,54.4h3.3c-0.1-0.4-0.3-0.8-0.6-1C38.4,53.1,38,53,37.6,53c-0.4,0-0.8,0.1-1.1,0.4
				C36.2,53.6,36,54,35.9,54.4"/>
			<path style="clip-path:url(#SVGID_00000085956926253693909510000011164305773752727947_);fill:#1D1D1B;" d="M53,55.1v0.3
				c0,0.6-0.1,1.1-0.3,1.6c-0.2,0.5-0.4,0.9-0.8,1.2c-0.3,0.3-0.7,0.6-1.2,0.8c-0.5,0.2-1,0.3-1.5,0.3c-0.5,0-1-0.1-1.5-0.3
				c-0.5-0.2-0.8-0.4-1.2-0.8c-0.3-0.3-0.6-0.7-0.8-1.2c-0.2-0.5-0.3-1-0.3-1.6v-0.3c0-0.6,0.1-1.1,0.3-1.6c0.2-0.5,0.4-0.9,0.8-1.2
				c0.3-0.3,0.7-0.6,1.2-0.8c0.5-0.2,1-0.3,1.5-0.3c0.5,0,1,0.1,1.5,0.3c0.5,0.2,0.8,0.4,1.2,0.8c0.3,0.3,0.6,0.7,0.8,1.2
				C52.9,54,53,54.5,53,55.1 M51.1,55.4v-0.3c0-0.6-0.2-1.1-0.5-1.5c-0.3-0.4-0.7-0.6-1.3-0.6c-0.5,0-1,0.2-1.3,0.6
				c-0.3,0.4-0.5,0.9-0.5,1.5v0.3c0,0.6,0.2,1.1,0.5,1.5c0.3,0.4,0.7,0.6,1.3,0.6c0.5,0,1-0.2,1.3-0.6C50.9,56.5,51.1,56,51.1,55.4"
				/>
			<path style="clip-path:url(#SVGID_00000085956926253693909510000011164305773752727947_);fill:#1D1D1B;" d="M54.3,59.1L54.3,59.1
				l2.1-1.1V53h1.3v-1.6h-1.3c0-0.4,0.1-0.7,0.4-0.9c0.3-0.2,0.6-0.3,0.9-0.3v-1.9c-0.6,0-1.1,0.1-1.5,0.2c-0.4,0.1-0.8,0.4-1.1,0.6
				c-0.3,0.3-0.5,0.6-0.7,1c-0.1,0.4-0.2,0.8-0.2,1.2h-0.9V53h0.9V59.1z"/>
			<polygon style="clip-path:url(#SVGID_00000085956926253693909510000011164305773752727947_);fill:#1D1D1B;" points="7.4,52.7 
				2.9,52.7 2.9,46.1 0.7,44 0.7,59.1 2.9,59.1 2.9,54.8 7.4,54.8 7.4,59 9.6,57.9 9.6,48.4 7.4,48.4 			"/>
			<path style="clip-path:url(#SVGID_00000085956926253693909510000011164305773752727947_);fill:#1D1D1B;" d="M69.6,56
				c0,1.1-0.4,2-1.2,2.6c-0.7,0.5-1.6,0.7-2.8,0.7c-0.8,0-1.5-0.2-2.2-0.5c-0.8-0.3-1.3-0.8-1.8-1.4l1.5-1.3
				c0.7,0.8,1.6,1.2,2.6,1.2c1.2,0,1.8-0.4,1.8-1.1c0-0.4-0.3-0.8-0.9-1c-0.2-0.1-0.7-0.2-1.4-0.4c-1.1-0.2-1.9-0.6-2.3-0.9
				c-0.6-0.5-0.9-1.2-0.9-2.1c0-1,0.4-1.7,1.1-2.3c0.7-0.5,1.5-0.7,2.5-0.7c1.5,0,2.7,0.5,3.7,1.6l-1.5,1.4
				c-0.7-0.7-1.5-1.1-2.3-1.1c-1,0-1.5,0.3-1.5,0.9c0,0.4,0.3,0.7,0.8,0.9c0.1,0.1,0.6,0.2,1.3,0.3c1.1,0.3,1.8,0.6,2.3,0.9
				C69.2,54.3,69.6,55,69.6,56"/>
			<path style="clip-path:url(#SVGID_00000085956926253693909510000011164305773752727947_);fill:#1D1D1B;" d="M76.9,59.2h-2v-0.5
				c-0.4,0.5-1,0.7-1.8,0.7c-1.9,0-2.9-1.2-2.9-3.5v-4.4h2v4.2c0,0.6,0.1,1,0.2,1.2c0.2,0.4,0.6,0.5,1.1,0.5c0.9,0,1.3-0.6,1.3-1.7
				v-4.2h2V59.2z"/>
			<path style="clip-path:url(#SVGID_00000085956926253693909510000011164305773752727947_);fill:#1D1D1B;" d="M84.6,55.4
				c0,1.1-0.2,2-0.7,2.7c-0.5,0.8-1.3,1.2-2.3,1.2c-0.6,0-1.2-0.2-1.6-0.6v2.4l-2,1V51.4h2v0.5c0.5-0.4,1-0.6,1.6-0.6
				c1.1,0,1.8,0.4,2.4,1.3C84.4,53.3,84.6,54.3,84.6,55.4 M82.6,55.4c0-1.5-0.4-2.2-1.3-2.2c-0.5,0-0.9,0.2-1.2,0.6v2.9
				c0.3,0.4,0.8,0.7,1.4,0.7C82.2,57.4,82.6,56.8,82.6,55.4"/>
			<path style="clip-path:url(#SVGID_00000085956926253693909510000011164305773752727947_);fill:#1D1D1B;" d="M91.9,55.3
				c0,0.2,0,0.5,0,0.6h-4.6c0,0.5,0.2,0.8,0.5,1.1c0.3,0.3,0.7,0.4,1.1,0.4c0.6,0,1-0.2,1.3-0.5l1.4,1.2c-0.3,0.4-0.7,0.7-1.2,0.9
				c-0.5,0.2-1,0.3-1.6,0.3c-1.2,0-2.1-0.4-2.7-1.2c-0.6-0.7-0.9-1.7-0.9-2.9c0-1.1,0.3-2,0.9-2.8c0.6-0.8,1.5-1.2,2.6-1.2
				c1,0,1.9,0.4,2.5,1.3C91.7,53.3,91.9,54.2,91.9,55.3 M90,54.4c0-0.4-0.2-0.7-0.4-1c-0.2-0.3-0.6-0.4-1-0.4
				c-0.4,0-0.7,0.1-0.9,0.4c-0.2,0.3-0.3,0.6-0.4,1H90z"/>
			<path style="clip-path:url(#SVGID_00000085956926253693909510000011164305773752727947_);fill:#1D1D1B;" d="M97.4,51.8l-0.5,2
				c-0.4-0.3-0.8-0.5-1.2-0.5c-0.5,0-0.9,0.2-1.1,0.5c-0.2,0.3-0.2,0.7-0.2,1.2v4.2h-2v-7.7h2V52c0.4-0.5,1-0.7,1.6-0.7
				C96.6,51.3,97.1,51.5,97.4,51.8"/>
			<path style="clip-path:url(#SVGID_00000085956926253693909510000011164305773752727947_);fill:#1D1D1B;" d="M105.7,56
				c0,1.1-0.4,2-1.2,2.6c-0.7,0.5-1.6,0.7-2.8,0.7c-0.8,0-1.5-0.2-2.2-0.5c-0.8-0.3-1.3-0.8-1.8-1.4l1.5-1.3
				c0.7,0.8,1.6,1.2,2.6,1.2c1.2,0,1.8-0.4,1.8-1.1c0-0.4-0.3-0.8-0.9-1c-0.2-0.1-0.7-0.2-1.4-0.4c-1.1-0.2-1.9-0.6-2.3-0.9
				c-0.6-0.5-0.9-1.2-0.9-2.1c0-1,0.4-1.7,1.1-2.3c0.7-0.5,1.5-0.7,2.5-0.7c1.5,0,2.7,0.5,3.7,1.6l-1.5,1.4
				c-0.7-0.7-1.5-1.1-2.3-1.1c-1,0-1.5,0.3-1.5,0.9c0,0.4,0.3,0.7,0.8,0.9c0.1,0.1,0.6,0.2,1.3,0.3c1.1,0.3,1.8,0.6,2.3,0.9
				C105.3,54.3,105.7,55,105.7,56"/>
			<path style="clip-path:url(#SVGID_00000085956926253693909510000011164305773752727947_);fill:#1D1D1B;" d="M110.9,56.8l-0.3,2.1
				c-0.4,0.3-0.9,0.5-1.6,0.5c-0.6,0-1.2-0.2-1.5-0.7c-0.4-0.4-0.5-1-0.5-1.6v-3.6h-1.3v-1.9h1.3v-2l2-1v3h1.9v1.9H109v3.1
				c0,0.6,0.3,0.9,0.7,0.9C110.1,57.4,110.5,57.2,110.9,56.8"/>
			<path style="clip-path:url(#SVGID_00000085956926253693909510000011164305773752727947_);fill:#1D1D1B;" d="M118,55.3
				c0,0.2,0,0.5,0,0.6h-4.6c0,0.5,0.2,0.8,0.5,1.1c0.3,0.3,0.7,0.4,1.1,0.4c0.6,0,1-0.2,1.3-0.5l1.4,1.2c-0.3,0.4-0.7,0.7-1.2,0.9
				c-0.5,0.2-1,0.3-1.6,0.3c-1.2,0-2.1-0.4-2.7-1.2c-0.6-0.7-0.9-1.7-0.9-2.9c0-1.1,0.3-2,0.9-2.8c0.6-0.8,1.5-1.2,2.6-1.2
				c1,0,1.9,0.4,2.5,1.3C117.7,53.3,118,54.2,118,55.3 M116,54.4c0-0.4-0.2-0.7-0.4-1c-0.2-0.3-0.6-0.4-1-0.4
				c-0.4,0-0.7,0.1-0.9,0.4c-0.2,0.3-0.3,0.6-0.4,1H116z"/>
			<path style="clip-path:url(#SVGID_00000085956926253693909510000011164305773752727947_);fill:#1D1D1B;" d="M125.3,55.4
				c0,1.1-0.2,2-0.7,2.7c-0.5,0.8-1.3,1.2-2.3,1.2c-0.6,0-1.2-0.2-1.6-0.6v2.4l-2,1V51.4h2v0.5c0.5-0.4,1-0.6,1.6-0.6
				c1.1,0,1.8,0.4,2.4,1.3C125.1,53.3,125.3,54.3,125.3,55.4 M123.3,55.4c0-1.5-0.4-2.2-1.3-2.2c-0.5,0-0.9,0.2-1.2,0.6v2.9
				c0.3,0.4,0.8,0.7,1.4,0.7C122.9,57.4,123.3,56.8,123.3,55.4"/>
		</g>
	</g>
</g>
</svg>
